#!OML:ASF I:\Actors\actors\Patient Classification 1\Patient 1\Session 1\Subject1.ASF
:FULLY-SPECIFIED
:DEGREES
1322
root -0.0754056 17.7766 7.69573 19.534 -1.11167 -10.1352
lowerback 14.5247 -1.0397 6.00903
upperback 8.25554 -0.626621 3.71009
thorax 0.591594 -0.214459 0.590329
lowerneck 3.53079 -14.4066 -13.3975
upperneck 1.53971 -20.6149 24.1932
head 3.92383 -10.4182 8.52905
rclavicle -8.74653e-015 8.34896e-015
rhumerus -89.4153 56.6577 -103.618
rradius 120.4
rwrist -40.6611
rhand 261.929 473.388
rfingers 7.12502
rthumb 66.8812 27.7777
lclavicle -8.74653e-015 8.34896e-015
lhumerus 107.998 -42.5623 -12.5609
lradius 110.65
lwrist 81.5895
lhand -12.4243 4.75259
lfingers 7.12502
lthumb 13.6481 -325.715
rfemur -22.7225 18.9268 21.8962
rtibia 9.10379
rfoot -9.52786 -21.4643
rtoes 0.464399
lfemur -197.633 232.906 -171.023
ltibia -3.08152
lfoot 134.631 -118.507
ltoes 26.5496
1323
root -0.0724814 17.7717 7.69365 19.3269 -1.24198 -10.7123
lowerback 14.7585 -1.141 6.81548
upperback 8.31842 -0.647105 3.64135
thorax 0.537021 -0.198129 0.0752455
lowerneck 3.71096 -14.3485 -13.4289
upperneck 1.51187 -20.5426 24.1622
head 3.87024 -10.3966 8.55049
rclavicle -4.17448e-015 1.47101e-014
rhumerus -89.9353 57.0254 -104.008
rradius 120.565
rwrist -40.4722
rhand 260.9 473.393
rfingers 7.12502
rthumb 67.3367 26.42
lclavicle -4.17448e-015 1.47101e-014
lhumerus 108.021 -42.4318 -14.694
lradius 110.481
lwrist 82.557
lhand -14.1801 4.22194
lfingers 7.12502
lthumb 11.9554 -326.139
rfemur -22.3934 18.9218 22.7308
rtibia 9.05543
rfoot -9.34322 -21.1595
rtoes -0.200762
lfemur -196.871 232.444 -171.047
ltibia -3.20677
lfoot 135.37 -118.583
ltoes 26.157
1324
root -0.0741388 17.7718 7.69466 19.2864 -1.56611 -10.6861
lowerback 14.7824 -1.02096 6.67808
upperback 8.36244 -0.510559 3.59091
thorax 0.576345 -0.132754 0.0796556
lowerneck 3.86259 -14.4039 -13.3695
upperneck 1.40625 -20.6016 24.089
head 3.80968 -10.4398 8.52585
rclavicle -4.57205e-015 -3.37934e-015
rhumerus -90.2732 57.1738 -104.07
rradius 120.7
rwrist -40.0693
rhand 260.251 473.357
rfingers 7.12502
rthumb 67.3463 25.7242
lclavicle -4.57205e-015 -3.37934e-015
lhumerus 108.192 -42.5624 -16.3897
lradius 110.705
lwrist 84.9231
lhand -16.1433 3.47594
lfingers 7.12502
lthumb 10.0619 -326.785
rfemur -22.3477 18.9926 22.7053
rtibia 9.06043
rfoot -9.2798 -20.9519
rtoes -0.338317
lfemur -196.52 232.17 -171.458
ltibia -3.1817
lfoot 135.439 -118.639
ltoes 26.0669
1325
root -0.0778294 17.7708 7.69575 19.2548 -1.8221 -10.64
lowerback 14.7824 -0.807617 6.41474
upperback 8.40145 -0.268482 3.60438
thorax 0.626313 -0.0204408 0.206397
lowerneck 4.07148 -14.5585 -13.1008
upperneck 1.15854 -20.7654 24.0149
head 3.69538 -10.5438 8.4652
rclavicle -9.14409e-015 1.64991e-014
rhumerus -90.5535 56.9222 -104.046
rradius 120.772
rwrist -39.7949
rhand 260.188 473.356
rfingers 7.12502
rthumb 67.2163 25.7685
lclavicle -9.14409e-015 1.64991e-014
lhumerus 108.62 -42.8471 -17.7795
lradius 111.247
lwrist 87.6973
lhand -18.1777 2.12655
lfingers 7.12502
lthumb 8.09885 -328.049
rfemur -22.3247 19.0106 22.6685
rtibia 9.07559
rfoot -9.23866 -20.7412
rtoes -0.245548
lfemur -196.219 231.593 -171.879
ltibia -3.1696
lfoot 136.272 -118.811
ltoes 25.7442
1326
root -0.0817937 17.7684 7.6957 19.2525 -1.97034 -10.6138
lowerback 14.7667 -0.638424 6.30078
upperback 8.43369 -0.0663462 3.60583
thorax 0.675935 0.0773527 0.243224
lowerneck 4.28288 -14.7222 -12.9106
upperneck 0.89009 -20.9468 24.0134
head 3.59529 -10.6588 8.43762
rclavicle -1.39149e-014 -7.55382e-015
rhumerus -90.8188 56.5505 -104.115
rradius 120.786
rwrist -39.8758
rhand 260.22 473.367
rfingers 7.12502
rthumb 67.3108 25.7326
lclavicle -1.39149e-014 -7.55382e-015
lhumerus 108.993 -43.237 -18.6804
lradius 112.331
lwrist 89.4658
lhand -20.6929 2.10182
lfingers 7.12502
lthumb 5.67085 -327.994
rfemur -22.3643 18.9451 22.668
rtibia 9.15258
rfoot -9.21028 -20.5479
rtoes -0.466388
lfemur -196.064 230.882 -172.168
ltibia -3.13653
lfoot 137.334 -119.121
ltoes 25.4342
1327
root -0.0898669 17.7706 7.69715 19.3649 -2.13736 -10.2323
lowerback 14.6449 -0.463437 5.79466
upperback 8.44657 0.0891542 3.56771
thorax 0.752147 0.140422 0.463424
lowerneck 4.35739 -14.8625 -13.0608
upperneck 0.69628 -21.1397 24.2889
head 3.6147 -10.7703 8.52772
rclavicle 1.53064e-014 1.49089e-014
rhumerus -91.217 56.2688 -104.405
rradius 120.715
rwrist -39.8126
rhand 260.804 473.413
rfingers 7.12502
rthumb 66.9554 26.6478
lclavicle 1.53064e-014 1.49089e-014
lhumerus 109.09 -43.6092 -18.8284
lradius 113.648
lwrist 91.1357
lhand -21.8145 1.69963
lfingers 7.12502
lthumb 4.58788 -328.37
rfemur -22.6042 18.9858 22.1367
rtibia 9.25158
rfoot -9.22923 -20.5863
rtoes -0.549092
lfemur -196.287 230.46 -172.529
ltibia -3.01257
lfoot 137.721 -119.374
ltoes 25.3813
1328
root -0.0978761 17.7741 7.69726 19.4714 -2.1889 -9.8829
lowerback 14.5709 -0.31006 5.33409
upperback 8.45035 0.228875 3.57797
thorax 0.791892 0.195022 0.712052
lowerneck 4.25521 -14.9959 -13.7696
upperneck 0.645263 -21.4232 25.2514
head 3.87688 -10.9147 8.87756
rclavicle -1.21259e-014 -1.75924e-014
rhumerus -91.5921 56.0731 -104.712
rradius 120.643
rwrist -39.6561
rhand 261.292 473.396
rfingers 7.12502
rthumb 66.5214 27.4324
lclavicle -1.21259e-014 -1.75924e-014
lhumerus 108.97 -43.852 -18.3288
lradius 115.182
lwrist 92.2246
lhand -22.4064 1.04673
lfingers 7.12502
lthumb 4.01635 -329.011
rfemur -22.8254 19.041 21.6403
rtibia 9.31892
rfoot -9.25313 -20.7358
rtoes -0.409604
lfemur -196.602 230.212 -172.723
ltibia -2.91651
lfoot 138.165 -119.514
ltoes 25.3111
1329
root -0.10091 17.7738 7.69248 19.5164 -2.0295 -9.85626
lowerback 14.6037 -0.25699 5.351
upperback 8.44695 0.304369 3.65374
thorax 0.772869 0.23114 0.771887
lowerneck 4.29893 -15.1006 -13.7298
upperneck 0.863267 -21.5837 25.0276
head 3.93138 -10.9826 8.7773
rclavicle -4.67144e-015 -2.73329e-014
rhumerus -91.5902 55.929 -104.679
rradius 120.667
rwrist -39.9829
rhand 260.521 473.166
rfingers 7.12502
rthumb 67.1713 25.9505
lclavicle -4.67144e-015 -2.73329e-014
lhumerus 108.693 -43.9272 -17.4903
lradius 116.844
lwrist 92.4122
lhand -23.5352 -0.11414
lfingers 7.12502
lthumb 2.92624 -330.154
rfemur -22.9264 18.97 21.607
rtibia 9.37952
rfoot -9.2945 -20.8265
rtoes -0.405851
lfemur -196.849 229.998 -172.561
ltibia -2.90109
lfoot 138.964 -119.617
ltoes 25.1047
1330
root -0.106576 17.7785 7.6894 19.7481 -2.01361 -9.30514
lowerback 14.3852 -0.170633 4.72786
upperback 8.42488 0.329768 3.60824
thorax 0.854844 0.225596 1.06872
lowerneck 4.48051 -15.0506 -13.7526
upperneck 0.989778 -21.544 25.0171
head 3.93036 -10.9677 8.7983
rclavicle 3.97569e-015 1.18277e-014
rhumerus -91.2871 55.8424 -104.452
rradius 120.649
rwrist -40.3056
rhand 259.914 472.859
rfingers 7.12502
rthumb 67.844 24.4512
lclavicle 3.97569e-015 1.18277e-014
lhumerus 108.237 -43.7089 -16.4948
lradius 118.324
lwrist 91.6262
lhand -25.1423 -1.39766
lfingers 7.12502
lthumb 1.37416 -331.422
rfemur -23.3255 18.9581 20.7959
rtibia 9.46275
rfoot -9.36789 -21.0476
rtoes -0.33531
lfemur -197.613 230.59 -172.496
ltibia -2.75484
lfoot 137.839 -119.432
ltoes 25.617
1331
root -0.111164 17.7845 7.68522 19.9602 -1.95932 -8.76034
lowerback 14.1937 -0.172952 4.21657
upperback 8.45958 0.253438 3.51243
thorax 0.984914 0.174959 1.26467
lowerneck 5.25307 -14.6992 -13.0748
upperneck 0.797551 -20.9631 24.2366
head 3.45272 -10.7308 8.61966
rclavicle -9.44227e-015 -3.13086e-014
rhumerus -90.8185 55.9822 -104.223
rradius 120.534
rwrist -40.3844
rhand 260.202 472.899
rfingers 7.12502
rthumb 67.7969 24.826
lclavicle -9.44227e-015 -3.13086e-014
lhumerus 107.536 -43.0871 -15.4977
lradius 119.3
lwrist 90.0039
lhand -26.523 -1.94356
lfingers 7.12502
lthumb 0.0406299 -331.964
rfemur -23.6777 18.9648 19.9888
rtibia 9.49727
rfoot -9.43717 -21.3182
rtoes -0.0255269
lfemur -198.428 231.429 -172.329
ltibia -2.59901
lfoot 136.293 -119.167
ltoes 26.216
1332
root -0.10798 17.7817 7.67457 19.8714 -1.55261 -9.18497
lowerback 14.4195 -0.3761 4.96097
upperback 8.537 0.0865443 3.58853
thorax 0.955864 0.116299 0.951011
lowerneck 4.76101 -14.7603 -13.2667
upperneck 1.27201 -21.107 24.2044
head 3.71928 -10.7485 8.56078
rclavicle 3.8763e-015 -2.87244e-014
rhumerus -90.461 56.1899 -104.103
rradius 120.458
rwrist -40.5629
rhand 260.288 473.006
rfingers 7.12502
rthumb 67.6494 25.1522
lclavicle 3.8763e-015 -2.87244e-014
lhumerus 106.782 -42.2683 -14.8239
lradius 118.993
lwrist 89.7445
lhand -27.8326 -0.812003
lfingers 7.12502
lthumb -1.22421 -330.836
rfemur -23.5094 18.8755 20.5957
rtibia 9.44132
rfoot -9.45619 -21.4244
rtoes 0.108936
lfemur -198.422 231.349 -171.774
ltibia -2.70831
lfoot 137.368 -119.117
ltoes 25.6017
1333
root -0.10141 17.7738 7.66245 19.7173 -1.05692 -9.99671
lowerback 14.7417 -0.655846 6.11358
upperback 8.57944 -0.117092 3.73513
thorax 0.841112 0.0497258 0.491012
lowerneck 4.51467 -14.7055 -13.4661
upperneck 1.50749 -21.0729 24.2535
head 3.85137 -10.7066 8.58156
rclavicle 2.41523e-014 4.87022e-014
rhumerus -90.3703 56.3555 -104.213
rradius 120.463
rwrist -40.7994
rhand 260.05 473.107
rfingers 7.12502
rthumb 67.779 24.897
lclavicle 2.41523e-014 4.87022e-014
lhumerus 105.892 -41.6061 -14.2084
lradius 118.222
lwrist 91.0671
lhand -28.0327 -1.75512
lfingers 7.12502
lthumb -1.41753 -331.78
rfemur -23.1982 18.7269 21.7487
rtibia 9.33354
rfoot -9.4268 -21.4066
rtoes -0.173627
lfemur -198.143 230.847 -171.037
ltibia -2.92982
lfoot 139.406 -119.153
ltoes 24.4142
